<?xml version="1.0" encoding="utf-8" standalone="no"?>
<!DOCTYPE svg PUBLIC "-//W3C//DTD SVG 1.1//EN"
  "http://www.w3.org/Graphics/SVG/1.1/DTD/svg11.dtd">
<!-- Created with matplotlib (http://matplotlib.org/) -->
<svg height="180pt" version="1.1" viewBox="0 0 504 180" width="504pt" xmlns="http://www.w3.org/2000/svg" xmlns:xlink="http://www.w3.org/1999/xlink">
 <defs>
  <style type="text/css">
*{stroke-linecap:butt;stroke-linejoin:round;}
  </style>
 </defs>
 <g id="figure_1">
  <g id="patch_1">
   <path d="M 0 180 
L 504 180 
L 504 0 
L 0 0 
z
" style="fill:#ffffff;"/>
  </g>
  <g id="axes_1">
   <g id="patch_2">
    <path d="M 63 157.5 
L 453.6 157.5 
L 453.6 21.6 
L 63 21.6 
z
" style="fill:#ffffff;"/>
   </g>
   <g id="matplotlib.axis_1">
    <g id="xtick_1">
     <g id="line2d_1">
      <path clip-path="url(#paa68705b8a)" d="M 80.754545 157.5 
L 80.754545 21.6 
" style="fill:none;stroke:#b0b0b0;stroke-linecap:square;stroke-width:0.8;"/>
     </g>
     <g id="line2d_2">
      <defs>
       <path d="M 0 0 
L 0 3.5 
" id="m14a7025be3" style="stroke:#000000;stroke-width:0.8;"/>
      </defs>
      <g>
       <use style="stroke:#000000;stroke-width:0.8;" x="80.754545" xlink:href="#m14a7025be3" y="157.5"/>
      </g>
     </g>
     <g id="text_1">
      <!-- −2.0 -->
      <defs>
       <path d="M 10.59375 35.5 
L 73.1875 35.5 
L 73.1875 27.203125 
L 10.59375 27.203125 
z
" id="DejaVuSans-2212"/>
       <path d="M 19.1875 8.296875 
L 53.609375 8.296875 
L 53.609375 0 
L 7.328125 0 
L 7.328125 8.296875 
Q 12.9375 14.109375 22.625 23.890625 
Q 32.328125 33.6875 34.8125 36.53125 
Q 39.546875 41.84375 41.421875 45.53125 
Q 43.3125 49.21875 43.3125 52.78125 
Q 43.3125 58.59375 39.234375 62.25 
Q 35.15625 65.921875 28.609375 65.921875 
Q 23.96875 65.921875 18.8125 64.3125 
Q 13.671875 62.703125 7.8125 59.421875 
L 7.8125 69.390625 
Q 13.765625 71.78125 18.9375 73 
Q 24.125 74.21875 28.421875 74.21875 
Q 39.75 74.21875 46.484375 68.546875 
Q 53.21875 62.890625 53.21875 53.421875 
Q 53.21875 48.921875 51.53125 44.890625 
Q 49.859375 40.875 45.40625 35.40625 
Q 44.1875 33.984375 37.640625 27.21875 
Q 31.109375 20.453125 19.1875 8.296875 
z
" id="DejaVuSans-32"/>
       <path d="M 10.6875 12.40625 
L 21 12.40625 
L 21 0 
L 10.6875 0 
z
" id="DejaVuSans-2e"/>
       <path d="M 31.78125 66.40625 
Q 24.171875 66.40625 20.328125 58.90625 
Q 16.5 51.421875 16.5 36.375 
Q 16.5 21.390625 20.328125 13.890625 
Q 24.171875 6.390625 31.78125 6.390625 
Q 39.453125 6.390625 43.28125 13.890625 
Q 47.125 21.390625 47.125 36.375 
Q 47.125 51.421875 43.28125 58.90625 
Q 39.453125 66.40625 31.78125 66.40625 
z
M 31.78125 74.21875 
Q 44.046875 74.21875 50.515625 64.515625 
Q 56.984375 54.828125 56.984375 36.375 
Q 56.984375 17.96875 50.515625 8.265625 
Q 44.046875 -1.421875 31.78125 -1.421875 
Q 19.53125 -1.421875 13.0625 8.265625 
Q 6.59375 17.96875 6.59375 36.375 
Q 6.59375 54.828125 13.0625 64.515625 
Q 19.53125 74.21875 31.78125 74.21875 
z
" id="DejaVuSans-30"/>
      </defs>
      <g transform="translate(68.613139 172.098437)scale(0.1 -0.1)">
       <use xlink:href="#DejaVuSans-2212"/>
       <use x="83.789062" xlink:href="#DejaVuSans-32"/>
       <use x="147.412109" xlink:href="#DejaVuSans-2e"/>
       <use x="179.199219" xlink:href="#DejaVuSans-30"/>
      </g>
     </g>
    </g>
    <g id="xtick_2">
     <g id="line2d_3">
      <path clip-path="url(#paa68705b8a)" d="M 125.140909 157.5 
L 125.140909 21.6 
" style="fill:none;stroke:#b0b0b0;stroke-linecap:square;stroke-width:0.8;"/>
     </g>
     <g id="line2d_4">
      <g>
       <use style="stroke:#000000;stroke-width:0.8;" x="125.140909" xlink:href="#m14a7025be3" y="157.5"/>
      </g>
     </g>
     <g id="text_2">
      <!-- −1.5 -->
      <defs>
       <path d="M 12.40625 8.296875 
L 28.515625 8.296875 
L 28.515625 63.921875 
L 10.984375 60.40625 
L 10.984375 69.390625 
L 28.421875 72.90625 
L 38.28125 72.90625 
L 38.28125 8.296875 
L 54.390625 8.296875 
L 54.390625 0 
L 12.40625 0 
z
" id="DejaVuSans-31"/>
       <path d="M 10.796875 72.90625 
L 49.515625 72.90625 
L 49.515625 64.59375 
L 19.828125 64.59375 
L 19.828125 46.734375 
Q 21.96875 47.46875 24.109375 47.828125 
Q 26.265625 48.1875 28.421875 48.1875 
Q 40.625 48.1875 47.75 41.5 
Q 54.890625 34.8125 54.890625 23.390625 
Q 54.890625 11.625 47.5625 5.09375 
Q 40.234375 -1.421875 26.90625 -1.421875 
Q 22.3125 -1.421875 17.546875 -0.640625 
Q 12.796875 0.140625 7.71875 1.703125 
L 7.71875 11.625 
Q 12.109375 9.234375 16.796875 8.0625 
Q 21.484375 6.890625 26.703125 6.890625 
Q 35.15625 6.890625 40.078125 11.328125 
Q 45.015625 15.765625 45.015625 23.390625 
Q 45.015625 31 40.078125 35.4375 
Q 35.15625 39.890625 26.703125 39.890625 
Q 22.75 39.890625 18.8125 39.015625 
Q 14.890625 38.140625 10.796875 36.28125 
z
" id="DejaVuSans-35"/>
      </defs>
      <g transform="translate(112.999503 172.098437)scale(0.1 -0.1)">
       <use xlink:href="#DejaVuSans-2212"/>
       <use x="83.789062" xlink:href="#DejaVuSans-31"/>
       <use x="147.412109" xlink:href="#DejaVuSans-2e"/>
       <use x="179.199219" xlink:href="#DejaVuSans-35"/>
      </g>
     </g>
    </g>
    <g id="xtick_3">
     <g id="line2d_5">
      <path clip-path="url(#paa68705b8a)" d="M 169.527273 157.5 
L 169.527273 21.6 
" style="fill:none;stroke:#b0b0b0;stroke-linecap:square;stroke-width:0.8;"/>
     </g>
     <g id="line2d_6">
      <g>
       <use style="stroke:#000000;stroke-width:0.8;" x="169.527273" xlink:href="#m14a7025be3" y="157.5"/>
      </g>
     </g>
     <g id="text_3">
      <!-- −1.0 -->
      <g transform="translate(157.385866 172.098437)scale(0.1 -0.1)">
       <use xlink:href="#DejaVuSans-2212"/>
       <use x="83.789062" xlink:href="#DejaVuSans-31"/>
       <use x="147.412109" xlink:href="#DejaVuSans-2e"/>
       <use x="179.199219" xlink:href="#DejaVuSans-30"/>
      </g>
     </g>
    </g>
    <g id="xtick_4">
     <g id="line2d_7">
      <path clip-path="url(#paa68705b8a)" d="M 213.913636 157.5 
L 213.913636 21.6 
" style="fill:none;stroke:#b0b0b0;stroke-linecap:square;stroke-width:0.8;"/>
     </g>
     <g id="line2d_8">
      <g>
       <use style="stroke:#000000;stroke-width:0.8;" x="213.913636" xlink:href="#m14a7025be3" y="157.5"/>
      </g>
     </g>
     <g id="text_4">
      <!-- −0.5 -->
      <g transform="translate(201.77223 172.098437)scale(0.1 -0.1)">
       <use xlink:href="#DejaVuSans-2212"/>
       <use x="83.789062" xlink:href="#DejaVuSans-30"/>
       <use x="147.412109" xlink:href="#DejaVuSans-2e"/>
       <use x="179.199219" xlink:href="#DejaVuSans-35"/>
      </g>
     </g>
    </g>
    <g id="xtick_5">
     <g id="line2d_9">
      <path clip-path="url(#paa68705b8a)" d="M 258.3 157.5 
L 258.3 21.6 
" style="fill:none;stroke:#b0b0b0;stroke-linecap:square;stroke-width:0.8;"/>
     </g>
     <g id="line2d_10">
      <g>
       <use style="stroke:#000000;stroke-width:0.8;" x="258.3" xlink:href="#m14a7025be3" y="157.5"/>
      </g>
     </g>
     <g id="text_5">
      <!-- 0.0 -->
      <g transform="translate(250.348438 172.098437)scale(0.1 -0.1)">
       <use xlink:href="#DejaVuSans-30"/>
       <use x="63.623047" xlink:href="#DejaVuSans-2e"/>
       <use x="95.410156" xlink:href="#DejaVuSans-30"/>
      </g>
     </g>
    </g>
    <g id="xtick_6">
     <g id="line2d_11">
      <path clip-path="url(#paa68705b8a)" d="M 302.686364 157.5 
L 302.686364 21.6 
" style="fill:none;stroke:#b0b0b0;stroke-linecap:square;stroke-width:0.8;"/>
     </g>
     <g id="line2d_12">
      <g>
       <use style="stroke:#000000;stroke-width:0.8;" x="302.686364" xlink:href="#m14a7025be3" y="157.5"/>
      </g>
     </g>
     <g id="text_6">
      <!-- 0.5 -->
      <g transform="translate(294.734801 172.098437)scale(0.1 -0.1)">
       <use xlink:href="#DejaVuSans-30"/>
       <use x="63.623047" xlink:href="#DejaVuSans-2e"/>
       <use x="95.410156" xlink:href="#DejaVuSans-35"/>
      </g>
     </g>
    </g>
    <g id="xtick_7">
     <g id="line2d_13">
      <path clip-path="url(#paa68705b8a)" d="M 347.072727 157.5 
L 347.072727 21.6 
" style="fill:none;stroke:#b0b0b0;stroke-linecap:square;stroke-width:0.8;"/>
     </g>
     <g id="line2d_14">
      <g>
       <use style="stroke:#000000;stroke-width:0.8;" x="347.072727" xlink:href="#m14a7025be3" y="157.5"/>
      </g>
     </g>
     <g id="text_7">
      <!-- 1.0 -->
      <g transform="translate(339.121165 172.098437)scale(0.1 -0.1)">
       <use xlink:href="#DejaVuSans-31"/>
       <use x="63.623047" xlink:href="#DejaVuSans-2e"/>
       <use x="95.410156" xlink:href="#DejaVuSans-30"/>
      </g>
     </g>
    </g>
    <g id="xtick_8">
     <g id="line2d_15">
      <path clip-path="url(#paa68705b8a)" d="M 391.459091 157.5 
L 391.459091 21.6 
" style="fill:none;stroke:#b0b0b0;stroke-linecap:square;stroke-width:0.8;"/>
     </g>
     <g id="line2d_16">
      <g>
       <use style="stroke:#000000;stroke-width:0.8;" x="391.459091" xlink:href="#m14a7025be3" y="157.5"/>
      </g>
     </g>
     <g id="text_8">
      <!-- 1.5 -->
      <g transform="translate(383.507528 172.098437)scale(0.1 -0.1)">
       <use xlink:href="#DejaVuSans-31"/>
       <use x="63.623047" xlink:href="#DejaVuSans-2e"/>
       <use x="95.410156" xlink:href="#DejaVuSans-35"/>
      </g>
     </g>
    </g>
    <g id="xtick_9">
     <g id="line2d_17">
      <path clip-path="url(#paa68705b8a)" d="M 435.845455 157.5 
L 435.845455 21.6 
" style="fill:none;stroke:#b0b0b0;stroke-linecap:square;stroke-width:0.8;"/>
     </g>
     <g id="line2d_18">
      <g>
       <use style="stroke:#000000;stroke-width:0.8;" x="435.845455" xlink:href="#m14a7025be3" y="157.5"/>
      </g>
     </g>
     <g id="text_9">
      <!-- 2.0 -->
      <g transform="translate(427.893892 172.098437)scale(0.1 -0.1)">
       <use xlink:href="#DejaVuSans-32"/>
       <use x="63.623047" xlink:href="#DejaVuSans-2e"/>
       <use x="95.410156" xlink:href="#DejaVuSans-30"/>
      </g>
     </g>
    </g>
   </g>
   <g id="matplotlib.axis_2">
    <g id="ytick_1">
     <g id="line2d_19">
      <path clip-path="url(#paa68705b8a)" d="M 63 157.506524 
L 453.6 157.506524 
" style="fill:none;stroke:#b0b0b0;stroke-linecap:square;stroke-width:0.8;"/>
     </g>
     <g id="line2d_20">
      <defs>
       <path d="M 0 0 
L -3.5 0 
" id="m00f055341f" style="stroke:#000000;stroke-width:0.8;"/>
      </defs>
      <g>
       <use style="stroke:#000000;stroke-width:0.8;" x="63" xlink:href="#m00f055341f" y="157.506524"/>
      </g>
     </g>
     <g id="text_10">
      <!-- −0.25 -->
      <g transform="translate(25.354687 161.305743)scale(0.1 -0.1)">
       <use xlink:href="#DejaVuSans-2212"/>
       <use x="83.789062" xlink:href="#DejaVuSans-30"/>
       <use x="147.412109" xlink:href="#DejaVuSans-2e"/>
       <use x="179.199219" xlink:href="#DejaVuSans-32"/>
       <use x="242.822266" xlink:href="#DejaVuSans-35"/>
      </g>
     </g>
    </g>
    <g id="ytick_2">
     <g id="line2d_21">
      <path clip-path="url(#paa68705b8a)" d="M 63 130.32 
L 453.6 130.32 
" style="fill:none;stroke:#b0b0b0;stroke-linecap:square;stroke-width:0.8;"/>
     </g>
     <g id="line2d_22">
      <g>
       <use style="stroke:#000000;stroke-width:0.8;" x="63" xlink:href="#m00f055341f" y="130.32"/>
      </g>
     </g>
     <g id="text_11">
      <!-- 0.00 -->
      <g transform="translate(33.734375 134.119219)scale(0.1 -0.1)">
       <use xlink:href="#DejaVuSans-30"/>
       <use x="63.623047" xlink:href="#DejaVuSans-2e"/>
       <use x="95.410156" xlink:href="#DejaVuSans-30"/>
       <use x="159.033203" xlink:href="#DejaVuSans-30"/>
      </g>
     </g>
    </g>
    <g id="ytick_3">
     <g id="line2d_23">
      <path clip-path="url(#paa68705b8a)" d="M 63 103.133476 
L 453.6 103.133476 
" style="fill:none;stroke:#b0b0b0;stroke-linecap:square;stroke-width:0.8;"/>
     </g>
     <g id="line2d_24">
      <g>
       <use style="stroke:#000000;stroke-width:0.8;" x="63" xlink:href="#m00f055341f" y="103.133476"/>
      </g>
     </g>
     <g id="text_12">
      <!-- 0.25 -->
      <g transform="translate(33.734375 106.932694)scale(0.1 -0.1)">
       <use xlink:href="#DejaVuSans-30"/>
       <use x="63.623047" xlink:href="#DejaVuSans-2e"/>
       <use x="95.410156" xlink:href="#DejaVuSans-32"/>
       <use x="159.033203" xlink:href="#DejaVuSans-35"/>
      </g>
     </g>
    </g>
    <g id="ytick_4">
     <g id="line2d_25">
      <path clip-path="url(#paa68705b8a)" d="M 63 75.946951 
L 453.6 75.946951 
" style="fill:none;stroke:#b0b0b0;stroke-linecap:square;stroke-width:0.8;"/>
     </g>
     <g id="line2d_26">
      <g>
       <use style="stroke:#000000;stroke-width:0.8;" x="63" xlink:href="#m00f055341f" y="75.946951"/>
      </g>
     </g>
     <g id="text_13">
      <!-- 0.50 -->
      <g transform="translate(33.734375 79.74617)scale(0.1 -0.1)">
       <use xlink:href="#DejaVuSans-30"/>
       <use x="63.623047" xlink:href="#DejaVuSans-2e"/>
       <use x="95.410156" xlink:href="#DejaVuSans-35"/>
       <use x="159.033203" xlink:href="#DejaVuSans-30"/>
      </g>
     </g>
    </g>
    <g id="ytick_5">
     <g id="line2d_27">
      <path clip-path="url(#paa68705b8a)" d="M 63 48.760427 
L 453.6 48.760427 
" style="fill:none;stroke:#b0b0b0;stroke-linecap:square;stroke-width:0.8;"/>
     </g>
     <g id="line2d_28">
      <g>
       <use style="stroke:#000000;stroke-width:0.8;" x="63" xlink:href="#m00f055341f" y="48.760427"/>
      </g>
     </g>
     <g id="text_14">
      <!-- 0.75 -->
      <defs>
       <path d="M 8.203125 72.90625 
L 55.078125 72.90625 
L 55.078125 68.703125 
L 28.609375 0 
L 18.3125 0 
L 43.21875 64.59375 
L 8.203125 64.59375 
z
" id="DejaVuSans-37"/>
      </defs>
      <g transform="translate(33.734375 52.559645)scale(0.1 -0.1)">
       <use xlink:href="#DejaVuSans-30"/>
       <use x="63.623047" xlink:href="#DejaVuSans-2e"/>
       <use x="95.410156" xlink:href="#DejaVuSans-37"/>
       <use x="159.033203" xlink:href="#DejaVuSans-35"/>
      </g>
     </g>
    </g>
    <g id="ytick_6">
     <g id="line2d_29">
      <path clip-path="url(#paa68705b8a)" d="M 63 21.573902 
L 453.6 21.573902 
" style="fill:none;stroke:#b0b0b0;stroke-linecap:square;stroke-width:0.8;"/>
     </g>
     <g id="line2d_30">
      <g>
       <use style="stroke:#000000;stroke-width:0.8;" x="63" xlink:href="#m00f055341f" y="21.573902"/>
      </g>
     </g>
     <g id="text_15">
      <!-- 1.00 -->
      <g transform="translate(33.734375 25.373121)scale(0.1 -0.1)">
       <use xlink:href="#DejaVuSans-31"/>
       <use x="63.623047" xlink:href="#DejaVuSans-2e"/>
       <use x="95.410156" xlink:href="#DejaVuSans-30"/>
       <use x="159.033203" xlink:href="#DejaVuSans-30"/>
      </g>
     </g>
    </g>
   </g>
   <g id="line2d_31">
    <path clip-path="url(#paa68705b8a)" d="M 80.754545 129.719778 
L 85.375348 132.382572 
L 86.797133 132.938265 
L 88.218919 133.261789 
L 89.640704 133.319452 
L 91.06249 133.101443 
L 92.484275 132.623132 
L 94.261507 131.72154 
L 96.749631 130.121791 
L 99.593202 128.327032 
L 101.014988 127.642295 
L 102.436773 127.192195 
L 103.858559 127.0225 
L 104.924898 127.09279 
L 106.346683 127.447496 
L 107.768468 128.074094 
L 109.5457 129.157487 
L 115.588288 133.209904 
L 117.010074 133.737734 
L 118.076413 133.935399 
L 119.142752 133.948044 
L 120.209091 133.772167 
L 121.27543 133.413971 
L 122.697215 132.681278 
L 124.474447 131.446126 
L 129.806143 127.37376 
L 131.227928 126.675563 
L 132.294267 126.359924 
L 133.360606 126.245052 
L 134.426945 126.340353 
L 135.493284 126.644514 
L 136.559623 127.145386 
L 137.981409 128.078863 
L 139.75864 129.557243 
L 144.023997 133.299572 
L 145.445782 134.202402 
L 146.512121 134.662545 
L 147.57846 134.905239 
L 148.644799 134.913671 
L 149.711138 134.682825 
L 150.777477 134.219968 
L 151.843817 133.544513 
L 153.265602 132.367916 
L 155.39828 130.224299 
L 158.241851 127.335652 
L 159.663636 126.180673 
L 160.729975 125.539123 
L 161.796314 125.132901 
L 162.862654 124.988339 
L 163.928993 125.11883 
L 164.995332 125.523844 
L 166.061671 126.188653 
L 167.483456 127.428085 
L 169.260688 129.395605 
L 173.526044 134.408157 
L 174.94783 135.626205 
L 176.014169 136.248961 
L 177.080508 136.578012 
L 178.146847 136.588496 
L 179.213186 136.271333 
L 180.279525 135.634107 
L 181.345864 134.701117 
L 182.767649 133.068675 
L 184.544881 130.598888 
L 188.099345 125.544122 
L 189.52113 124.001996 
L 190.587469 123.182669 
L 191.653808 122.711432 
L 192.364701 122.609036 
L 193.075594 122.683666 
L 193.786486 122.937484 
L 194.497379 123.368621 
L 195.563718 124.333689 
L 196.630057 125.646475 
L 198.051843 127.838404 
L 200.184521 131.693865 
L 202.672645 136.138563 
L 204.094431 138.186701 
L 205.16077 139.320371 
L 205.871663 139.842344 
L 206.582555 140.156676 
L 207.293448 140.250408 
L 208.004341 140.115199 
L 208.715233 139.747629 
L 209.426126 139.14941 
L 210.492465 137.836244 
L 211.558804 136.066337 
L 212.98059 133.121279 
L 215.113268 127.93728 
L 217.601392 121.930993 
L 219.023178 119.148513 
L 220.089517 117.60569 
L 220.80041 116.897308 
L 221.511302 116.476187 
L 222.222195 116.363103 
L 222.933088 116.572882 
L 223.64398 117.113888 
L 224.354873 117.987607 
L 225.065766 119.188371 
L 226.132105 121.572356 
L 227.198444 124.586829 
L 228.620229 129.391986 
L 231.108354 138.921895 
L 232.885586 145.462907 
L 233.951925 148.810685 
L 235.018264 151.466964 
L 235.729156 152.755321 
L 236.440049 153.594763 
L 237.150942 153.93741 
L 237.506388 153.909226 
L 237.861835 153.741886 
L 238.572727 152.974241 
L 239.28362 151.60876 
L 239.994513 149.628644 
L 240.705405 147.026547 
L 241.771744 141.96538 
L 242.838084 135.563555 
L 243.904423 127.922601 
L 245.326208 116.073325 
L 247.10344 99.285211 
L 252.079689 50.841704 
L 253.501474 39.626548 
L 254.567813 32.723912 
L 255.634152 27.351949 
L 256.345045 24.704577 
L 257.055938 22.848287 
L 257.76683 21.808648 
L 258.122277 21.6 
L 258.477723 21.6 
L 258.83317 21.808648 
L 259.188616 22.225223 
L 259.899509 23.67569 
L 260.610401 25.931404 
L 261.321294 28.961332 
L 262.387633 34.864242 
L 263.453972 42.232366 
L 264.875758 53.943393 
L 266.652989 70.72298 
L 271.629238 119.192744 
L 273.051024 130.598961 
L 274.117363 137.841221 
L 275.183702 143.80496 
L 276.250041 148.405421 
L 276.960934 150.696217 
L 277.671826 152.367496 
L 278.382719 153.431388 
L 279.093612 153.909226 
L 279.449058 153.93741 
L 279.804505 153.830936 
L 280.515397 153.23429 
L 281.22629 152.164038 
L 281.937183 150.670934 
L 283.003522 147.761367 
L 284.425307 142.950777 
L 289.757002 123.518035 
L 290.823342 120.703212 
L 291.889681 118.547747 
L 292.600573 117.509342 
L 293.311466 116.801724 
L 294.022359 116.426955 
L 294.733251 116.380068 
L 295.444144 116.649409 
L 296.155037 117.217105 
L 296.86593 118.059638 
L 297.932269 119.775248 
L 298.998608 121.930993 
L 300.775839 126.149612 
L 303.974857 133.910251 
L 305.396642 136.703197 
L 306.462981 138.32749 
L 307.52932 139.477039 
L 308.240213 139.960474 
L 308.951106 140.211754 
L 309.661998 140.231751 
L 310.372891 140.026379 
L 311.083784 139.606333 
L 312.150123 138.607936 
L 313.216462 137.228814 
L 314.638247 134.943708 
L 319.969943 125.646475 
L 321.036282 124.333689 
L 322.102621 123.368621 
L 323.16896 122.788198 
L 323.879853 122.623994 
L 324.590745 122.638396 
L 325.301638 122.827267 
L 326.367977 123.41936 
L 327.434316 124.34389 
L 328.856102 125.993854 
L 330.633333 128.48825 
L 333.832351 133.068675 
L 335.254136 134.701117 
L 336.320475 135.634107 
L 337.386814 136.271333 
L 338.453153 136.588496 
L 339.519492 136.578012 
L 340.585831 136.248961 
L 341.65217 135.626205 
L 342.718509 134.748745 
L 344.140295 133.271829 
L 346.628419 130.259281 
L 348.761097 127.790825 
L 350.182883 126.463441 
L 351.249222 125.717713 
L 352.315561 125.223768 
L 353.3819 125.001009 
L 354.448239 125.0547 
L 355.514578 125.376016 
L 356.580917 125.942789 
L 358.002703 127.019878 
L 359.779934 128.727383 
L 363.689844 132.687263 
L 365.11163 133.791607 
L 366.177969 134.399078 
L 367.244308 134.786166 
L 368.310647 134.93745 
L 369.376986 134.849774 
L 370.443325 134.532172 
L 371.509664 134.005178 
L 372.93145 133.031263 
L 374.708681 131.516004 
L 378.618591 128.078863 
L 380.040377 127.145386 
L 381.462162 126.52045 
L 382.528501 126.28509 
L 383.59484 126.260238 
L 384.661179 126.443593 
L 385.727518 126.822296 
L 387.149304 127.590824 
L 388.926536 128.864215 
L 393.902785 132.681278 
L 395.32457 133.413971 
L 396.746355 133.851556 
L 397.812695 133.964802 
L 398.879034 133.88962 
L 399.945373 133.632701 
L 401.367158 133.03606 
L 403.14439 131.969893 
L 409.186978 127.894427 
L 410.608763 127.331813 
L 412.030549 127.050368 
L 413.096888 127.03704 
L 414.518673 127.279822 
L 415.940459 127.793761 
L 417.71769 128.737351 
L 420.561261 130.598596 
L 423.049386 132.116548 
L 424.471171 132.76534 
L 425.892957 133.181379 
L 427.314742 133.330926 
L 428.736527 133.204905 
L 430.158313 132.819308 
L 431.580098 132.213335 
L 433.712776 131.02304 
L 435.845455 129.719778 
L 435.845455 129.719778 
" style="fill:none;stroke:#ff7f0e;stroke-linecap:square;stroke-width:2;"/>
   </g>
   <g id="patch_3">
    <path d="M 63 157.5 
L 63 21.6 
" style="fill:none;stroke:#000000;stroke-linecap:square;stroke-linejoin:miter;stroke-width:0.8;"/>
   </g>
   <g id="patch_4">
    <path d="M 453.6 157.5 
L 453.6 21.6 
" style="fill:none;stroke:#000000;stroke-linecap:square;stroke-linejoin:miter;stroke-width:0.8;"/>
   </g>
   <g id="patch_5">
    <path d="M 63 157.5 
L 453.6 157.5 
" style="fill:none;stroke:#000000;stroke-linecap:square;stroke-linejoin:miter;stroke-width:0.8;"/>
   </g>
   <g id="patch_6">
    <path d="M 63 21.6 
L 453.6 21.6 
" style="fill:none;stroke:#000000;stroke-linecap:square;stroke-linejoin:miter;stroke-width:0.8;"/>
   </g>
   <g id="legend_1">
    <g id="patch_7">
     <path d="M 382.065625 44.278125 
L 446.6 44.278125 
Q 448.6 44.278125 448.6 42.278125 
L 448.6 28.6 
Q 448.6 26.6 446.6 26.6 
L 382.065625 26.6 
Q 380.065625 26.6 380.065625 28.6 
L 380.065625 42.278125 
Q 380.065625 44.278125 382.065625 44.278125 
z
" style="fill:#ffffff;opacity:0.8;stroke:#cccccc;stroke-linejoin:miter;"/>
    </g>
    <g id="line2d_32">
     <path d="M 384.065625 34.698437 
L 404.065625 34.698437 
" style="fill:none;stroke:#ff7f0e;stroke-linecap:square;stroke-width:2;"/>
    </g>
    <g id="line2d_33"/>
    <g id="text_16">
     <!-- sinc1d -->
     <defs>
      <path d="M 44.28125 53.078125 
L 44.28125 44.578125 
Q 40.484375 46.53125 36.375 47.5 
Q 32.28125 48.484375 27.875 48.484375 
Q 21.1875 48.484375 17.84375 46.4375 
Q 14.5 44.390625 14.5 40.28125 
Q 14.5 37.15625 16.890625 35.375 
Q 19.28125 33.59375 26.515625 31.984375 
L 29.59375 31.296875 
Q 39.15625 29.25 43.1875 25.515625 
Q 47.21875 21.78125 47.21875 15.09375 
Q 47.21875 7.46875 41.1875 3.015625 
Q 35.15625 -1.421875 24.609375 -1.421875 
Q 20.21875 -1.421875 15.453125 -0.5625 
Q 10.6875 0.296875 5.421875 2 
L 5.421875 11.28125 
Q 10.40625 8.6875 15.234375 7.390625 
Q 20.0625 6.109375 24.8125 6.109375 
Q 31.15625 6.109375 34.5625 8.28125 
Q 37.984375 10.453125 37.984375 14.40625 
Q 37.984375 18.0625 35.515625 20.015625 
Q 33.0625 21.96875 24.703125 23.78125 
L 21.578125 24.515625 
Q 13.234375 26.265625 9.515625 29.90625 
Q 5.8125 33.546875 5.8125 39.890625 
Q 5.8125 47.609375 11.28125 51.796875 
Q 16.75 56 26.8125 56 
Q 31.78125 56 36.171875 55.265625 
Q 40.578125 54.546875 44.28125 53.078125 
z
" id="DejaVuSans-73"/>
      <path d="M 9.421875 54.6875 
L 18.40625 54.6875 
L 18.40625 0 
L 9.421875 0 
z
M 9.421875 75.984375 
L 18.40625 75.984375 
L 18.40625 64.59375 
L 9.421875 64.59375 
z
" id="DejaVuSans-69"/>
      <path d="M 54.890625 33.015625 
L 54.890625 0 
L 45.90625 0 
L 45.90625 32.71875 
Q 45.90625 40.484375 42.875 44.328125 
Q 39.84375 48.1875 33.796875 48.1875 
Q 26.515625 48.1875 22.3125 43.546875 
Q 18.109375 38.921875 18.109375 30.90625 
L 18.109375 0 
L 9.078125 0 
L 9.078125 54.6875 
L 18.109375 54.6875 
L 18.109375 46.1875 
Q 21.34375 51.125 25.703125 53.5625 
Q 30.078125 56 35.796875 56 
Q 45.21875 56 50.046875 50.171875 
Q 54.890625 44.34375 54.890625 33.015625 
z
" id="DejaVuSans-6e"/>
      <path d="M 48.78125 52.59375 
L 48.78125 44.1875 
Q 44.96875 46.296875 41.140625 47.34375 
Q 37.3125 48.390625 33.40625 48.390625 
Q 24.65625 48.390625 19.8125 42.84375 
Q 14.984375 37.3125 14.984375 27.296875 
Q 14.984375 17.28125 19.8125 11.734375 
Q 24.65625 6.203125 33.40625 6.203125 
Q 37.3125 6.203125 41.140625 7.25 
Q 44.96875 8.296875 48.78125 10.40625 
L 48.78125 2.09375 
Q 45.015625 0.34375 40.984375 -0.53125 
Q 36.96875 -1.421875 32.421875 -1.421875 
Q 20.0625 -1.421875 12.78125 6.34375 
Q 5.515625 14.109375 5.515625 27.296875 
Q 5.515625 40.671875 12.859375 48.328125 
Q 20.21875 56 33.015625 56 
Q 37.15625 56 41.109375 55.140625 
Q 45.0625 54.296875 48.78125 52.59375 
z
" id="DejaVuSans-63"/>
      <path d="M 45.40625 46.390625 
L 45.40625 75.984375 
L 54.390625 75.984375 
L 54.390625 0 
L 45.40625 0 
L 45.40625 8.203125 
Q 42.578125 3.328125 38.25 0.953125 
Q 33.9375 -1.421875 27.875 -1.421875 
Q 17.96875 -1.421875 11.734375 6.484375 
Q 5.515625 14.40625 5.515625 27.296875 
Q 5.515625 40.1875 11.734375 48.09375 
Q 17.96875 56 27.875 56 
Q 33.9375 56 38.25 53.625 
Q 42.578125 51.265625 45.40625 46.390625 
z
M 14.796875 27.296875 
Q 14.796875 17.390625 18.875 11.75 
Q 22.953125 6.109375 30.078125 6.109375 
Q 37.203125 6.109375 41.296875 11.75 
Q 45.40625 17.390625 45.40625 27.296875 
Q 45.40625 37.203125 41.296875 42.84375 
Q 37.203125 48.484375 30.078125 48.484375 
Q 22.953125 48.484375 18.875 42.84375 
Q 14.796875 37.203125 14.796875 27.296875 
z
" id="DejaVuSans-64"/>
     </defs>
     <g transform="translate(412.065625 38.198437)scale(0.1 -0.1)">
      <use xlink:href="#DejaVuSans-73"/>
      <use x="52.099609" xlink:href="#DejaVuSans-69"/>
      <use x="79.882812" xlink:href="#DejaVuSans-6e"/>
      <use x="143.261719" xlink:href="#DejaVuSans-63"/>
      <use x="198.242188" xlink:href="#DejaVuSans-31"/>
      <use x="261.865234" xlink:href="#DejaVuSans-64"/>
     </g>
    </g>
   </g>
  </g>
 </g>
 <defs>
  <clipPath id="paa68705b8a">
   <rect height="135.9" width="390.6" x="63" y="21.6"/>
  </clipPath>
 </defs>
</svg>
